Coordinates
version=1
nRows=60
nColumns=12
inDegrees=yes

Units are S.I. units (second, meters, Newtons, ...)
Angles are in degrees

endheader
time	SC_y	SC_z	SC_x	AC_y	AC_z	AC_x	GH_y	GH_z	GH_yy	EL_x	PS_y
       0.0              -46.87         0.3525          25.24           63.2         -7.826         -11.44          31.22          25.99          92.95          6.286          48.01
   0.03102              -46.87         0.3563          25.24           63.2         -7.825         -11.44           31.2          25.98          92.97           6.29          48.02
   0.06203              -46.87         0.3603          25.24           63.2         -7.825         -11.44          31.17          25.98          92.98          6.293          48.03
   0.09305              -46.87         0.3646          25.25           63.2         -7.824         -11.44          31.15          25.97          92.99          6.298          48.04
    0.1241              -46.87         0.3692          25.25           63.2         -7.823         -11.44          31.12          25.96          93.01          6.302          48.05
    0.1551              -46.87          0.374          25.25           63.2         -7.823         -11.44          31.09          25.95          93.03          6.306          48.06
    0.1861              -46.87         0.3792          25.25           63.2         -7.822         -11.44          31.06          25.94          93.04          6.311          48.08
    0.2171              -46.87         0.3848          25.25           63.2         -7.821         -11.44          31.02          25.94          93.06          6.317          48.09
    0.2481              -46.88         0.3907          25.25          63.21          -7.82         -11.44          30.99          25.93          93.08          6.322           48.1
    0.2791              -46.88         0.3971          25.25          63.21         -7.819         -11.44          30.95          25.92           93.1          6.328          48.12
    0.3102              -46.88          0.404          25.25          63.21         -7.818         -11.44          30.91          25.91          93.12          6.335          48.13
    0.3412              -46.88         0.4113          25.25          63.21         -7.817         -11.44          30.86          25.89          93.15          6.342          48.15
    0.3722              -46.88         0.4193          25.25          63.21         -7.816         -11.44          30.81          25.88          93.17           6.35          48.17
    0.4032              -46.89         0.4279          25.25          63.21         -7.814         -11.44          30.76          25.87           93.2          6.358          48.19
    0.4342              -46.89         0.4371          25.25          63.22         -7.813         -11.44           30.7          25.85          93.23          6.367          48.21
    0.4652              -46.89         0.4472          25.26          63.22         -7.811         -11.44          30.64          25.84          93.27          6.376          48.24
    0.4963              -46.89         0.4582          25.26          63.22         -7.809         -11.44          30.58          25.82           93.3          6.387          48.26
    0.5273               -46.9         0.4701          25.26          63.22         -7.808         -11.43           30.5           25.8          93.34          6.398          48.29
    0.5583               -46.9         0.4831          25.26          63.23         -7.806         -11.43          30.42          25.78          93.38           6.41          48.32
    0.5893               -46.9         0.4974          25.26          63.23         -7.803         -11.43          30.34          25.76          93.43          6.424          48.36
    0.6203              -46.91          0.513          25.26          63.23         -7.801         -11.43          30.24          25.73          93.48          6.439          48.39
    0.6513              -46.91         0.5303          25.27          63.24         -7.798         -11.43          30.14           25.7          93.54          6.455          48.43
    0.6823              -46.92         0.5493          25.27          63.24         -7.795         -11.43          30.02          25.67           93.6          6.473          48.48
    0.7134              -46.92         0.5704          25.27          63.25         -7.792         -11.43          29.89          25.64          93.67          6.493          48.53
    0.7444              -46.93         0.5938          25.28          63.25         -7.788         -11.42          29.75           25.6          93.75          6.516          48.59
    0.7754              -46.93           0.62          25.28          63.26         -7.784         -11.42          29.59          25.56          93.83          6.541          48.65
    0.8064              -46.94         0.6493          25.28          63.27          -7.78         -11.42          29.41          25.51          93.93          6.569          48.72
    0.8374              -46.95         0.6823          25.29          63.27         -7.775         -11.41          29.21          25.46          94.04            6.6           48.8
    0.8684              -46.96         0.7195          25.29          63.28         -7.769         -11.41          28.98           25.4          94.16          6.636          48.88
    0.8995              -46.97         0.7618           25.3          63.29         -7.762         -11.41          28.72          25.33           94.3          6.676          48.98
    0.9305              -46.98         0.8101           25.3           63.3         -7.755          -11.4          28.43          25.26          94.46          6.722           49.1
    0.9615               -47.0         0.8655          25.31          63.32         -7.746          -11.4          28.09          25.17          94.64          6.775          49.23
    0.9925              -47.01         0.9294          25.32          63.33         -7.736         -11.39           27.7          25.07          94.85          6.835          49.38
     1.024              -47.03          1.004          25.33          63.35         -7.725         -11.39          27.24          24.95           95.1          6.906          49.56
     1.055              -47.05          1.091          25.34          63.37         -7.711         -11.38          26.71          24.81          95.38          6.989          49.76
     1.086              -47.08          1.193          25.35          63.39         -7.695         -11.37          26.09          24.65          95.72          7.087          50.01
     1.117              -47.11          1.315          25.37          63.42         -7.677         -11.36          25.34          24.45          96.12          7.203           50.3
     1.148              -47.15          1.461          25.39          63.46         -7.654         -11.34          24.45          24.22           96.6          7.342          50.64
     1.179              -47.19          1.638          25.41           63.5         -7.627         -11.33          23.37          23.94          97.18           7.51          51.06
      1.21              -47.25          1.854          25.44          63.55         -7.593         -11.31          22.06          23.59          97.89          7.716          51.57
     1.241              -47.32           2.12          25.48          63.61         -7.552         -11.28          20.43          23.17          98.76          7.969          52.21
     1.272               -47.4          2.452          25.52          63.69           -7.5         -11.25           18.4          22.64          99.86          8.286          52.99
     1.303              -47.51           2.87          25.57          63.78         -7.435         -11.22          15.84          21.97          101.2          8.684          53.99
     1.334              -47.64          3.402          25.64          63.91         -7.353         -11.17           12.6          21.12          103.0          9.191          55.25
     1.365              -47.81          4.083          25.73          64.07         -7.247         -11.11          8.439          20.04          105.2          9.839          56.86
     1.396              -48.04          4.957          25.85          64.27         -7.112         -11.03          3.104          18.64          108.1          10.67          58.94
     1.427              -48.32          6.073           26.0          64.53         -6.939         -10.93         -3.711          16.86          111.8          11.73          61.58
     1.458              -48.68          7.476          26.18          64.86         -6.721          -10.8         -12.28          14.62          116.4          13.07          64.91
     1.489              -49.11          9.186          26.41          65.25         -6.456         -10.65         -22.72          11.89          122.0           14.7          68.97
      1.52              -49.62          11.17          26.67          65.71         -6.148         -10.47         -34.83          8.732          128.5          16.59          73.67
     1.551              -50.16          13.31          26.95          66.21         -5.816         -10.27         -47.93          5.307          135.6          18.63          78.76
     1.582              -50.71          15.46          27.23          66.71         -5.483         -10.08         -61.04          1.883          142.6          20.68          83.86
     1.613              -51.21          17.44          27.49          67.17         -5.175         -9.898         -73.14         -1.279          149.1          22.56          88.56
     1.644              -51.65          19.15          27.72          67.57          -4.91         -9.743         -83.59         -4.007          154.7          24.19          92.62
     1.675               -52.0          20.56           27.9           67.9         -4.692         -9.616         -92.16         -6.246          159.4          25.53          95.94
     1.706              -52.29          21.67          28.05          68.16         -4.519         -9.515         -98.97         -8.027          163.0          26.59          98.59
     1.737              -52.51          22.55          28.17          68.36         -4.384         -9.436         -104.3         -9.421          165.9          27.42          100.7
     1.768              -52.68          23.23          28.25          68.52         -4.278         -9.374         -108.5         -10.51          168.1          28.07          102.3
     1.799              -52.82          23.76          28.32          68.64         -4.196         -9.326         -111.7         -11.36          169.9          28.58          103.5
      1.83              -52.92          24.18          28.38          68.74         -4.131         -9.288         -114.3         -12.02          171.3          28.98          104.5
